# xmcd CD database file
#
# Track frame offsets:
#	182
#	12987
#	32122
#	45067
#	58630
#	71192
#	90487
#	101197
#	112325
#	126152
#	135835
#	150542
#	162547
#	179052
#	190715
#	200590
#
# Disc length: 2819 seconds
#
# Revision: 2
# Processed by: cddbd v1.4b41PL1 Copyright (c) Steve Scherf et al.
# Submitted via: Feurio! 1.52 - http://www.feurio.com
#
DISCID=df0b0110,e30b0110
DTITLE=Various Artist - Country and Western Stars
DYEAR=1900
DGENRE=
TTITLE0=Waylon Jennings - I'm a rambling man
TTITLE1=Alabama - Mountain Music
TTITLE2=Bobby Bare - Detroit City
TTITLE3=Dolly Parton - Here you come again
TTITLE4=Jim Reeves - Blue side of lonesome
TTITLE5=Ronnie Milsap - Lost in the fifties tonight
TTITLE6=Connie Smith - Once a day
TTITLE7=Charley Pride - She called me baby
TTITLE8=Dolly Parton - Willie Nelson - I really don't want to know
TTITLE9=Jim Reeves - Billy Bayou
TTITLE10=Dolly Parton - Harper Valley PTA
TTITLE11=Skeeter Davis - The end of the world
TTITLE12=Alabama - Feels so right
TTITLE13=Waylon Jennings - Willie Nelson - Mammas don't let your babys grow up 
TTITLE13=to be cowboys
TTITLE14=Willie Nelson - Blackjack County Chain
TTITLE15=Charlie Rich - There won't be anymore
EXTD=Muse 19913
EXTT0=
EXTT1=
EXTT2=
EXTT3=
EXTT4=
EXTT5=
EXTT6=
EXTT7=
EXTT8=
EXTT9=
EXTT10=
EXTT11=
EXTT12=
EXTT13=
EXTT14=
EXTT15=
PLAYORDER=
